<svg width="669" height="65" viewBox="0 0 669 65" fill="none" xmlns="http://www.w3.org/2000/svg">
<g clip-path="url(#clip0_6_10)">
<mask id="path-1-inside-1_6_10" fill="white">
<path d="M587 0V0C592.523 0 597 4.47715 597 10V15H587V0Z"/>
</mask>
<path d="M586 -1H587C593.075 -1 598 3.92487 598 10H596C596 5.02944 591.971 1 587 1H588L586 -1ZM597 15H587H597ZM586 15V-1L587 0C587.334 5.83874e-08 587.668 0.0167271 588 0.0501183L588 10V15H586ZM587 -1C593.075 -1 598 3.92487 598 10V15H596V10C596 5.02944 591.971 1 587 1V-1Z" fill="white" mask="url(#path-1-inside-1_6_10)"/>
<mask id="path-3-inside-2_6_10" fill="white">
<path d="M437 7.5C437 3.35786 440.358 0 444.5 0H587V7.5H437V7.5Z"/>
</mask>
<path d="M436 7.5C436 2.80558 439.806 -1 444.5 -1H587V1H444.5C440.91 1 438 3.91015 438 7.5H436ZM587 8.5H436L437 7.5C437 7.16559 437.022 6.83155 437.067 6.50012L444.5 6.5H587V8.5ZM436 8.5V7.5C436 2.80558 439.806 -1 444.5 -1V1C440.91 1 438 3.91015 438 7.5V6.5L436 8.5ZM587 0V7.5V0Z" fill="white" mask="url(#path-3-inside-2_6_10)"/>
<g clip-path="url(#clip1_6_10)">
<rect x="219.5" y="15.5" width="399" height="49" stroke="white"/>
<path d="M280.84 38.92C280.973 38.92 281.127 38.9467 281.3 39C281.487 39.04 281.653 39.1 281.8 39.18C281.947 39.2467 282.067 39.32 282.16 39.4C282.267 39.48 282.32 39.5533 282.32 39.62C282.053 40.18 281.807 40.7467 281.58 41.32C281.353 41.88 281.16 42.42 281 42.94C280.84 43.46 280.713 43.9467 280.62 44.4C280.54 44.8533 280.5 45.2467 280.5 45.58C280.5 45.9533 280.54 46.2667 280.62 46.52C280.7 46.76 280.833 46.9333 281.02 47.04C280.86 47.1467 280.653 47.2333 280.4 47.3C280.147 47.3667 279.92 47.4 279.72 47.4C279 47.4 278.64 46.9067 278.64 45.92C278.64 45.16 278.893 44.12 279.4 42.8C279.133 43.4133 278.827 43.9933 278.48 44.54C278.133 45.0733 277.78 45.5467 277.42 45.96C277.06 46.3733 276.693 46.7133 276.32 46.98C275.96 47.2333 275.627 47.3867 275.32 47.44C274.827 47.4133 274.427 47.18 274.12 46.74C273.813 46.2867 273.66 45.7133 273.66 45.02C273.66 44.2733 273.82 43.4867 274.14 42.66C274.46 41.8333 274.867 41.0667 275.36 40.36C275.867 39.6533 276.413 39.0667 277 38.6C277.587 38.12 278.153 37.8667 278.7 37.84C278.833 37.88 278.98 37.96 279.14 38.08C279.313 38.2 279.473 38.34 279.62 38.5C279.78 38.66 279.913 38.8267 280.02 39C280.127 39.16 280.187 39.3 280.2 39.42C279.667 39.5 279.113 39.76 278.54 40.2C277.98 40.64 277.467 41.1733 277 41.8C276.547 42.4133 276.173 43.0733 275.88 43.78C275.587 44.4867 275.44 45.1467 275.44 45.76C275.44 46.0133 275.533 46.1733 275.72 46.24C276.107 46.16 276.553 45.8333 277.06 45.26C277.567 44.6733 278.18 43.7733 278.9 42.56C279.033 42.32 279.18 42.0533 279.34 41.76C279.513 41.4667 279.687 41.16 279.86 40.84C280.033 40.52 280.2 40.2 280.36 39.88C280.533 39.5467 280.693 39.2267 280.84 38.92ZM287.616 37.66C287.883 37.66 288.19 37.74 288.536 37.9C288.883 38.06 289.19 38.2667 289.456 38.52C289.39 37.9867 289.303 37.4867 289.196 37.02C289.103 36.54 288.956 36.0467 288.756 35.54C288.57 35.0333 288.316 34.48 287.996 33.88C287.676 33.28 287.276 32.5933 286.796 31.82C286.836 31.7 286.923 31.56 287.056 31.4C287.203 31.24 287.363 31.0933 287.536 30.96C287.723 30.8133 287.91 30.6867 288.096 30.58C288.296 30.4733 288.483 30.4067 288.656 30.38C289.03 30.7933 289.383 31.3133 289.716 31.94C290.05 32.5533 290.343 33.22 290.596 33.94C290.85 34.6467 291.043 35.38 291.176 36.14C291.323 36.9 291.396 37.6267 291.396 38.32C291.396 39.0133 291.316 39.7267 291.156 40.46C291.01 41.1933 290.796 41.9133 290.516 42.62C290.25 43.3133 289.936 43.9733 289.576 44.6C289.216 45.2267 288.823 45.7867 288.396 46.28C287.983 46.7733 287.55 47.1733 287.096 47.48C286.643 47.8 286.19 48 285.736 48.08C284.816 47.9733 284.11 47.6733 283.616 47.18C283.136 46.7 282.896 46.0333 282.896 45.18C282.896 44.7267 282.963 44.2333 283.096 43.7C283.243 43.1667 283.43 42.64 283.656 42.12C283.896 41.5867 284.17 41.0733 284.476 40.58C284.796 40.0733 285.13 39.62 285.476 39.22C285.836 38.82 286.196 38.48 286.556 38.2C286.916 37.92 287.27 37.74 287.616 37.66ZM285.576 47.28C286.043 47.12 286.51 46.7667 286.976 46.22C287.443 45.6733 287.863 45.0333 288.236 44.3C288.61 43.5533 288.91 42.76 289.136 41.92C289.376 41.0667 289.496 40.2467 289.496 39.46C289.496 39.2333 289.496 39.0933 289.496 39.04C289.496 38.9867 289.49 38.9333 289.476 38.88C289.156 39.0133 288.816 39.24 288.456 39.56C288.096 39.88 287.736 40.2533 287.376 40.68C287.016 41.0933 286.676 41.5467 286.356 42.04C286.036 42.5333 285.75 43.0267 285.496 43.52C285.243 44.0133 285.043 44.4867 284.896 44.94C284.75 45.3933 284.676 45.7933 284.676 46.14C284.676 46.8067 284.976 47.1867 285.576 47.28ZM291.929 45.66C291.929 45.54 291.935 45.3933 291.949 45.22C291.975 45.0333 292.015 44.7933 292.069 44.5C292.122 44.1933 292.189 43.8267 292.269 43.4C292.362 42.9733 292.475 42.46 292.609 41.86C292.635 41.7267 292.695 41.5133 292.789 41.22C292.882 40.9267 293.002 40.62 293.149 40.3C293.309 39.9667 293.495 39.6467 293.709 39.34C293.935 39.0333 294.202 38.8067 294.509 38.66C294.735 38.7133 295.035 38.8533 295.409 39.08C295.782 39.2933 296.102 39.5933 296.369 39.98C296.062 40.3267 295.802 40.6733 295.589 41.02C295.389 41.3667 295.202 41.7267 295.029 42.1C294.869 42.4733 294.715 42.86 294.569 43.26C294.435 43.66 294.282 44.08 294.109 44.52C293.962 44.8933 293.829 45.28 293.709 45.68C293.589 46.0667 293.522 46.4067 293.509 46.7C293.509 46.94 293.502 47.1067 293.489 47.2C293.489 47.3067 293.455 47.36 293.389 47.36C293.335 47.36 293.229 47.3267 293.069 47.26C292.909 47.1933 292.742 47.0933 292.569 46.96C292.409 46.8133 292.262 46.6333 292.129 46.42C291.995 46.2067 291.929 45.9533 291.929 45.66ZM295.749 36.98C295.749 36.9 295.769 36.78 295.809 36.62C295.742 36.5533 295.682 36.4533 295.629 36.32C295.589 36.1867 295.569 36.0667 295.569 35.96C295.569 35.84 295.582 35.68 295.609 35.48C295.649 35.2667 295.695 35.04 295.749 34.8C295.802 34.56 295.869 34.3133 295.949 34.06C296.029 33.7933 296.109 33.5533 296.189 33.34C296.349 33.34 296.542 33.3867 296.769 33.48C297.009 33.56 297.249 33.6733 297.489 33.82C297.729 33.9533 297.949 34.1067 298.149 34.28C298.349 34.44 298.502 34.5933 298.609 34.74C298.462 34.8867 298.269 35.0933 298.029 35.36C297.789 35.6133 297.555 35.8867 297.329 36.18C297.102 36.46 296.895 36.7267 296.709 36.98C296.522 37.2333 296.402 37.4133 296.349 37.52C296.189 37.4933 296.049 37.4267 295.929 37.32C295.809 37.2 295.749 37.0867 295.749 36.98ZM296.615 46.66C296.615 46.1933 296.662 45.6467 296.755 45.02C296.849 44.38 296.982 43.7 297.155 42.98C297.342 42.26 297.555 41.5067 297.795 40.72C298.049 39.9333 298.329 39.1467 298.635 38.36C298.902 37.6533 299.209 36.94 299.555 36.22C299.915 35.5 300.302 34.7933 300.715 34.1C301.129 33.4067 301.555 32.7467 301.995 32.12C302.449 31.4933 302.902 30.92 303.355 30.4C303.569 30.4 303.795 30.4267 304.035 30.48C304.289 30.5333 304.529 30.6067 304.755 30.7C304.995 30.78 305.209 30.88 305.395 31C305.595 31.12 305.755 31.24 305.875 31.36C304.875 32.3867 303.975 33.4267 303.175 34.48C302.375 35.52 301.742 36.5 301.275 37.42C301.022 37.9267 300.789 38.4 300.575 38.84C300.375 39.28 300.189 39.72 300.015 40.16C299.842 40.5867 299.682 41.02 299.535 41.46C299.402 41.8867 299.275 42.34 299.155 42.82C301.715 39.5533 303.615 37.92 304.855 37.92C305.202 37.92 305.575 38.0333 305.975 38.26C306.375 38.4867 306.729 38.7933 307.035 39.18C306.622 39.6333 306.195 40.18 305.755 40.82C305.315 41.46 304.909 42.1067 304.535 42.76C304.175 43.4 303.875 44 303.635 44.56C303.409 45.1067 303.295 45.5133 303.295 45.78C303.295 45.9133 303.315 46.0067 303.355 46.06C303.395 46.1 303.482 46.12 303.615 46.12C303.815 46.12 303.975 46.0933 304.095 46.04C304.215 45.9867 304.289 45.96 304.315 45.96C304.382 46.0667 304.422 46.14 304.435 46.18C304.449 46.22 304.455 46.2533 304.455 46.28C304.455 46.3333 304.375 46.4133 304.215 46.52C304.055 46.6133 303.862 46.7133 303.635 46.82C303.422 46.9133 303.209 47 302.995 47.08C302.782 47.16 302.622 47.2 302.515 47.2C302.382 47.2 302.249 47.16 302.115 47.08C301.982 47.0133 301.862 46.92 301.755 46.8C301.662 46.68 301.582 46.5467 301.515 46.4C301.462 46.2533 301.435 46.1 301.435 45.94C301.435 45.74 301.489 45.4467 301.595 45.06C301.715 44.66 301.875 44.2 302.075 43.68C302.275 43.1467 302.515 42.5667 302.795 41.94C303.075 41.3133 303.375 40.6733 303.695 40.02C303.695 39.9667 303.669 39.94 303.615 39.94C303.575 39.94 303.469 39.9933 303.295 40.1C303.135 40.2067 302.982 40.3133 302.835 40.42C302.355 40.78 301.869 41.2267 301.375 41.76C300.895 42.28 300.422 42.8533 299.955 43.48C299.502 44.1067 299.069 44.7733 298.655 45.48C298.255 46.1733 297.909 46.8733 297.615 47.58C297.575 47.6733 297.515 47.76 297.435 47.84C297.355 47.92 297.289 47.96 297.235 47.96C297.195 47.96 297.135 47.9133 297.055 47.82C296.989 47.7267 296.922 47.6067 296.855 47.46C296.802 47.3267 296.749 47.1867 296.695 47.04C296.642 46.8933 296.615 46.7667 296.615 46.66ZM310.207 37.3C310.554 37.4067 310.881 37.6467 311.187 38.02C311.494 38.38 311.721 38.78 311.867 39.22C311.721 39.58 311.494 40.0133 311.187 40.52C310.881 41.0267 310.574 41.5467 310.267 42.08C309.961 42.6 309.681 43.1 309.427 43.58C309.187 44.0467 309.047 44.4333 309.007 44.74C309.221 44.5133 309.454 44.2533 309.707 43.96C309.974 43.6533 310.227 43.3533 310.467 43.06C310.721 42.7533 310.954 42.48 311.167 42.24C311.381 41.9867 311.547 41.8 311.667 41.68C311.921 41.4133 312.221 41.1067 312.567 40.76C312.914 40.4 313.274 40.0667 313.647 39.76C314.034 39.44 314.421 39.1733 314.807 38.96C315.194 38.7333 315.547 38.62 315.867 38.62C316.214 38.62 316.501 38.74 316.727 38.98C316.967 39.2067 317.154 39.4467 317.287 39.7C317.287 39.7267 317.234 39.7667 317.127 39.82C317.034 39.86 316.894 39.9867 316.707 40.2C316.521 40.44 316.307 40.7733 316.067 41.2C315.841 41.6133 315.614 42.0667 315.387 42.56C315.174 43.04 314.994 43.5333 314.847 44.04C314.701 44.5467 314.627 45.0067 314.627 45.42C314.627 45.7533 314.667 45.9667 314.747 46.06C314.841 46.1533 314.967 46.2 315.127 46.2C315.274 46.2 315.427 46.1667 315.587 46.1C315.747 46.0333 315.874 46 315.967 46C316.021 46.0267 316.061 46.0867 316.087 46.18C316.127 46.26 316.147 46.3333 316.147 46.4C316.041 46.4933 315.914 46.5867 315.767 46.68C315.621 46.7733 315.467 46.86 315.307 46.94C315.147 47.02 314.987 47.0867 314.827 47.14C314.681 47.1933 314.547 47.22 314.427 47.22C314.041 47.22 313.721 47.16 313.467 47.04C313.227 46.9333 313.034 46.7867 312.887 46.6C312.754 46.4133 312.661 46.1933 312.607 45.94C312.554 45.6733 312.527 45.3933 312.527 45.1C312.527 44.94 312.541 44.76 312.567 44.56C312.594 44.36 312.647 44.1267 312.727 43.86C312.807 43.58 312.921 43.2533 313.067 42.88C313.214 42.4933 313.401 42.0333 313.627 41.5C313.601 41.5 313.421 41.5933 313.087 41.78C312.754 41.9667 312.394 42.2533 312.007 42.64C311.381 43.24 310.814 43.8333 310.307 44.42C309.814 45.0067 309.307 45.66 308.787 46.38C308.494 46.7933 308.234 47.14 308.007 47.42C307.794 47.7133 307.607 47.9067 307.447 48C307.167 47.84 306.961 47.6133 306.827 47.32C306.694 47.04 306.594 46.7467 306.527 46.44C306.527 46.1867 306.561 45.8667 306.627 45.48C306.707 45.0933 306.807 44.6667 306.927 44.2C307.061 43.72 307.221 43.22 307.407 42.7C307.594 42.18 307.801 41.66 308.027 41.14C308.534 39.9667 308.994 39.0467 309.407 38.38C309.834 37.7133 310.101 37.3533 310.207 37.3ZM323.208 46.56C322.955 46.3467 322.781 46.08 322.688 45.76C322.608 45.44 322.568 45.1667 322.568 44.94C322.568 44.66 322.601 44.42 322.668 44.22C322.615 44.22 322.495 44.3267 322.308 44.54C322.121 44.7533 321.915 45.0067 321.688 45.3C321.475 45.5933 321.261 45.88 321.048 46.16C320.835 46.44 320.675 46.6467 320.568 46.78C320.395 46.9667 320.228 47.1133 320.068 47.22C319.921 47.3267 319.801 47.3867 319.708 47.4C319.495 47.3867 319.268 47.34 319.028 47.26C318.801 47.1933 318.581 47.0933 318.368 46.96C318.168 46.8267 317.988 46.6667 317.828 46.48C317.681 46.2933 317.581 46.08 317.528 45.84C317.528 45.4667 317.535 45.16 317.548 44.92C317.575 44.68 317.621 44.42 317.688 44.14C317.808 43.6333 317.981 43.06 318.208 42.42C318.448 41.78 318.721 41.1533 319.028 40.54C319.335 39.9133 319.675 39.3333 320.048 38.8C320.435 38.2533 320.841 37.8267 321.268 37.52C321.388 37.52 321.528 37.5333 321.688 37.56C321.848 37.5733 322.008 37.6067 322.168 37.66C322.341 37.7133 322.501 37.78 322.648 37.86C322.808 37.9267 322.941 38.02 323.048 38.14C322.928 38.2733 322.621 38.72 322.128 39.48C321.648 40.24 321.108 41.3333 320.508 42.76C320.441 42.9067 320.361 43.12 320.268 43.4C320.175 43.68 320.081 43.9733 319.988 44.28C319.895 44.5867 319.815 44.8867 319.748 45.18C319.695 45.4733 319.668 45.7067 319.668 45.88C319.668 45.9867 319.681 46.0667 319.708 46.12C319.748 46.1733 319.781 46.2133 319.808 46.24C320.008 46.16 320.261 45.94 320.568 45.58C320.875 45.22 321.301 44.6667 321.848 43.92C321.981 43.7333 322.135 43.52 322.308 43.28C322.495 43.04 322.681 42.7867 322.868 42.52C323.055 42.24 323.228 41.9533 323.388 41.66C323.561 41.3667 323.701 41.0733 323.808 40.78C323.861 40.62 323.928 40.4333 324.008 40.22C324.101 39.9933 324.208 39.76 324.328 39.52C324.461 39.28 324.608 39.04 324.768 38.8C324.941 38.5467 325.141 38.3133 325.368 38.1C325.541 38.1 325.728 38.12 325.928 38.16C326.128 38.2 326.315 38.2533 326.488 38.32C326.675 38.3733 326.835 38.44 326.968 38.52C327.101 38.5867 327.201 38.66 327.268 38.74C327.028 39.3267 326.761 39.9067 326.468 40.48C326.175 41.0533 325.901 41.62 325.648 42.18C325.395 42.7267 325.181 43.2733 325.008 43.82C324.835 44.3667 324.748 44.9 324.748 45.42C324.748 45.7 324.768 45.9467 324.808 46.16C324.861 46.36 324.915 46.5333 324.968 46.68C325.021 46.8133 325.068 46.9267 325.108 47.02C325.161 47.1133 325.188 47.1933 325.188 47.26C325.188 47.2733 325.175 47.2933 325.148 47.32C325.135 47.3333 325.121 47.34 325.108 47.34C325.015 47.34 324.895 47.32 324.748 47.28C324.601 47.24 324.435 47.18 324.248 47.1C324.075 47.0333 323.895 46.9533 323.708 46.86C323.535 46.7667 323.368 46.6667 323.208 46.56ZM327.171 46.6C327.238 46.2133 327.351 45.7067 327.511 45.08C327.684 44.44 327.884 43.7667 328.111 43.06C328.338 42.34 328.578 41.62 328.831 40.9C329.084 40.18 329.331 39.5333 329.571 38.96C329.744 38.5467 329.898 38.2267 330.031 38C330.164 37.76 330.311 37.56 330.471 37.4C330.658 37.4267 330.851 37.4733 331.051 37.54C331.251 37.6067 331.444 37.6867 331.631 37.78C331.818 37.8733 331.984 37.9733 332.131 38.08C332.278 38.1733 332.391 38.2667 332.471 38.36C332.111 38.7867 331.791 39.2733 331.511 39.82C331.244 40.3667 330.971 41.0667 330.691 41.92C331.411 41.28 332.044 40.6667 332.591 40.08C333.151 39.4933 333.671 38.84 334.151 38.12C334.231 38.0533 334.371 38.02 334.571 38.02C334.758 38.02 334.938 38.0533 335.111 38.12C335.284 38.1733 335.404 38.2533 335.471 38.36C335.231 39 335.111 39.6333 335.111 40.26C335.111 40.8467 335.198 41.2867 335.371 41.58C335.358 41.66 335.264 41.8133 335.091 42.04C334.931 42.2667 334.751 42.48 334.551 42.68C334.191 42.4933 333.871 42.24 333.591 41.92C333.311 41.5867 333.104 41.2267 332.971 40.84C332.344 41.28 331.811 41.7133 331.371 42.14C330.931 42.5533 330.551 43.02 330.231 43.54C329.924 44.0467 329.658 44.6333 329.431 45.3C329.218 45.9667 329.011 46.76 328.811 47.68C328.691 47.6667 328.544 47.62 328.371 47.54C328.211 47.4733 328.044 47.3867 327.871 47.28C327.711 47.1733 327.564 47.06 327.431 46.94C327.298 46.82 327.211 46.7067 327.171 46.6ZM342.305 39.04C342.292 39.2933 342.245 39.56 342.165 39.84C342.098 40.1067 342.012 40.3533 341.905 40.58C341.798 40.7933 341.685 40.9733 341.565 41.12C341.445 41.2667 341.332 41.34 341.225 41.34C341.078 41.3267 340.992 41.2267 340.965 41.04C340.965 41 340.978 40.94 341.005 40.86C341.045 40.7667 341.085 40.6667 341.125 40.56C341.165 40.4533 341.198 40.3467 341.225 40.24C341.265 40.1333 341.285 40.04 341.285 39.96C341.285 39.7733 341.238 39.62 341.145 39.5C341.065 39.3667 340.952 39.3 340.805 39.3C340.272 39.3 339.865 39.6333 339.585 40.3C339.305 40.9667 339.165 41.9467 339.165 43.24C339.165 43.3733 339.172 43.4533 339.185 43.48C339.465 43.4667 339.712 43.46 339.925 43.46C340.152 43.4467 340.372 43.44 340.585 43.44C340.598 43.4667 340.605 43.52 340.605 43.6C340.605 43.72 340.578 43.8067 340.525 43.86C340.218 43.9267 339.972 43.9867 339.785 44.04C339.612 44.08 339.478 44.12 339.385 44.16C339.292 44.2 339.232 44.2467 339.205 44.3C339.192 44.34 339.185 44.4 339.185 44.48C339.185 44.5867 339.185 44.6933 339.185 44.8C339.198 44.9067 339.205 45.04 339.205 45.2C339.205 46.32 338.898 47.22 338.285 47.9C337.685 48.58 336.845 48.9733 335.765 49.08C335.578 49.0667 335.385 49.0133 335.185 48.92C334.985 48.8267 334.792 48.7067 334.605 48.56C334.432 48.4133 334.278 48.2467 334.145 48.06C334.012 47.8867 333.918 47.7067 333.865 47.52C333.865 47.0133 333.972 46.5333 334.185 46.08C334.398 45.6133 334.685 45.2067 335.045 44.86C335.418 44.5 335.852 44.2133 336.345 44C336.852 43.7733 337.398 43.64 337.985 43.6C337.985 43.2667 337.952 42.94 337.885 42.62C337.818 42.3 337.745 41.9933 337.665 41.7C337.598 41.3933 337.532 41.1 337.465 40.82C337.398 40.5267 337.365 40.24 337.365 39.96C337.365 39.6 337.438 39.2467 337.585 38.9C337.732 38.54 337.925 38.2133 338.165 37.92C338.405 37.6133 338.685 37.3533 339.005 37.14C339.325 36.9267 339.658 36.78 340.005 36.7C340.152 36.74 340.345 36.86 340.585 37.06C340.838 37.2467 341.085 37.46 341.325 37.7C341.565 37.94 341.778 38.1867 341.965 38.44C342.152 38.68 342.265 38.88 342.305 39.04ZM335.705 48.16C336.025 48.0267 336.325 47.8333 336.605 47.58C336.898 47.3267 337.152 47.04 337.365 46.72C337.578 46.4 337.745 46.06 337.865 45.7C337.998 45.34 338.065 44.9867 338.065 44.64C337.798 44.68 337.505 44.8067 337.185 45.02C336.865 45.22 336.565 45.4667 336.285 45.76C336.005 46.04 335.772 46.3333 335.585 46.64C335.398 46.9467 335.305 47.2133 335.305 47.44C335.305 47.7333 335.438 47.9733 335.705 48.16ZM349.839 43.9C349.532 44.8733 349.226 45.76 348.919 46.56C348.612 47.36 348.286 48.0933 347.939 48.76C347.592 49.44 347.219 50.06 346.819 50.62C346.419 51.1933 345.979 51.7333 345.499 52.24C344.886 52.88 344.252 53.3667 343.599 53.7C342.946 54.0467 342.292 54.22 341.639 54.22C341.306 54.22 340.972 54.18 340.639 54.1C340.319 54.0333 340.019 53.9333 339.739 53.8C339.446 53.68 339.192 53.5333 338.979 53.36C338.752 53.2 338.592 53.0267 338.499 52.84C338.499 52.68 338.592 52.54 338.779 52.42C338.939 52.5667 339.072 52.68 339.179 52.76C339.286 52.84 339.392 52.9067 339.499 52.96C339.592 53.0133 339.699 53.0467 339.819 53.06C339.926 53.0733 340.052 53.08 340.199 53.08C340.959 53.08 341.699 52.8533 342.419 52.4C343.152 51.96 343.839 51.3267 344.479 50.5C345.132 49.6867 345.726 48.6933 346.259 47.52C346.792 46.36 347.246 45.06 347.619 43.62C347.446 43.8867 347.232 44.2133 346.979 44.6C346.726 44.9867 346.446 45.3733 346.139 45.76C345.832 46.1333 345.512 46.4733 345.179 46.78C344.859 47.0867 344.546 47.2933 344.239 47.4C344.026 47.3867 343.799 47.34 343.559 47.26C343.332 47.1933 343.112 47.0933 342.899 46.96C342.699 46.8267 342.519 46.6667 342.359 46.48C342.199 46.2933 342.092 46.08 342.039 45.84C342.039 45.4533 342.052 45.1467 342.079 44.92C342.106 44.68 342.152 44.42 342.219 44.14C342.339 43.6333 342.512 43.06 342.739 42.42C342.979 41.78 343.252 41.1533 343.559 40.54C343.879 39.9133 344.226 39.3333 344.599 38.8C344.986 38.2533 345.386 37.8267 345.799 37.52C345.906 37.52 346.039 37.5333 346.199 37.56C346.359 37.5733 346.526 37.6067 346.699 37.66C346.872 37.7133 347.039 37.78 347.199 37.86C347.359 37.9267 347.499 38.02 347.619 38.14C347.472 38.2733 347.152 38.72 346.659 39.48C346.166 40.24 345.619 41.3333 345.019 42.76C344.952 42.9067 344.872 43.12 344.779 43.4C344.686 43.68 344.592 43.9733 344.499 44.28C344.419 44.5867 344.346 44.8867 344.279 45.18C344.212 45.4733 344.179 45.7067 344.179 45.88C344.179 45.9867 344.192 46.0667 344.219 46.12C344.259 46.1733 344.292 46.2133 344.319 46.24C344.559 46.2 344.879 46.0067 345.279 45.66C345.679 45.3 346.132 44.7467 346.639 44C346.959 43.52 347.252 43.0467 347.519 42.58C347.786 42.1 348.046 41.62 348.299 41.14C348.566 40.66 348.839 40.1667 349.119 39.66C349.399 39.1533 349.699 38.6333 350.019 38.1C350.192 38.1 350.379 38.12 350.579 38.16C350.779 38.2 350.972 38.2533 351.159 38.32C351.346 38.3733 351.506 38.44 351.639 38.52C351.786 38.5867 351.892 38.66 351.959 38.74C351.546 39.62 351.159 40.48 350.799 41.32C350.439 42.16 350.119 43.02 349.839 43.9ZM359.004 38.92C359.137 38.92 359.291 38.9467 359.464 39C359.651 39.04 359.817 39.1 359.964 39.18C360.111 39.2467 360.231 39.32 360.324 39.4C360.431 39.48 360.484 39.5533 360.484 39.62C360.217 40.18 359.971 40.7467 359.744 41.32C359.517 41.88 359.324 42.42 359.164 42.94C359.004 43.46 358.877 43.9467 358.784 44.4C358.704 44.8533 358.664 45.2467 358.664 45.58C358.664 45.9533 358.704 46.2667 358.784 46.52C358.864 46.76 358.997 46.9333 359.184 47.04C359.024 47.1467 358.817 47.2333 358.564 47.3C358.311 47.3667 358.084 47.4 357.884 47.4C357.164 47.4 356.804 46.9067 356.804 45.92C356.804 45.16 357.057 44.12 357.564 42.8C357.297 43.4133 356.991 43.9933 356.644 44.54C356.297 45.0733 355.944 45.5467 355.584 45.96C355.224 46.3733 354.857 46.7133 354.484 46.98C354.124 47.2333 353.791 47.3867 353.484 47.44C352.991 47.4133 352.591 47.18 352.284 46.74C351.977 46.2867 351.824 45.7133 351.824 45.02C351.824 44.2733 351.984 43.4867 352.304 42.66C352.624 41.8333 353.031 41.0667 353.524 40.36C354.031 39.6533 354.577 39.0667 355.164 38.6C355.751 38.12 356.317 37.8667 356.864 37.84C356.997 37.88 357.144 37.96 357.304 38.08C357.477 38.2 357.637 38.34 357.784 38.5C357.944 38.66 358.077 38.8267 358.184 39C358.291 39.16 358.351 39.3 358.364 39.42C357.831 39.5 357.277 39.76 356.704 40.2C356.144 40.64 355.631 41.1733 355.164 41.8C354.711 42.4133 354.337 43.0733 354.044 43.78C353.751 44.4867 353.604 45.1467 353.604 45.76C353.604 46.0133 353.697 46.1733 353.884 46.24C354.271 46.16 354.717 45.8333 355.224 45.26C355.731 44.6733 356.344 43.7733 357.064 42.56C357.197 42.32 357.344 42.0533 357.504 41.76C357.677 41.4667 357.851 41.16 358.024 40.84C358.197 40.52 358.364 40.2 358.524 39.88C358.697 39.5467 358.857 39.2267 359.004 38.92ZM373.059 40.86C372.845 40.8733 372.585 41.0133 372.279 41.28C371.972 41.5333 371.639 41.8667 371.279 42.28C370.932 42.68 370.565 43.1267 370.179 43.62C369.805 44.1133 369.439 44.6067 369.079 45.1C368.732 45.58 368.405 46.0333 368.099 46.46C367.792 46.8867 367.532 47.2267 367.319 47.48C367.025 47.36 366.772 47.1867 366.559 46.96C366.345 46.72 366.192 46.4267 366.099 46.08C366.165 45.6667 366.259 45.24 366.379 44.8C366.499 44.3467 366.652 43.88 366.839 43.4C367.039 42.92 367.279 42.42 367.559 41.9C367.852 41.3667 368.205 40.8067 368.619 40.22C368.419 40.2333 368.145 40.38 367.799 40.66C367.452 40.9267 367.079 41.28 366.679 41.72C366.279 42.1467 365.865 42.6333 365.439 43.18C365.012 43.7133 364.612 44.24 364.239 44.76C363.745 45.4533 363.332 46.06 362.999 46.58C362.679 47.1 362.445 47.4067 362.299 47.5C361.952 47.2467 361.712 46.9733 361.579 46.68C361.445 46.3867 361.345 46.06 361.279 45.7C361.292 45.38 361.339 44.98 361.419 44.5C361.512 44.02 361.639 43.5267 361.799 43.02C362.105 42.0467 362.499 41.08 362.979 40.12C363.472 39.16 363.945 38.28 364.399 37.48C364.772 37.56 365.105 37.6867 365.399 37.86C365.705 38.0333 366.025 38.2867 366.359 38.62C366.225 39.0333 366.019 39.4733 365.739 39.94C365.459 40.3933 365.165 40.8733 364.859 41.38C364.552 41.8867 364.272 42.4067 364.019 42.94C363.765 43.4733 363.599 44.0133 363.519 44.56C363.892 44.0267 364.332 43.4133 364.839 42.72C365.359 42.0267 365.885 41.3733 366.419 40.76C366.965 40.1467 367.505 39.6267 368.039 39.2C368.572 38.7733 369.052 38.56 369.479 38.56C369.639 38.56 369.812 38.5867 369.999 38.64C370.185 38.6933 370.359 38.76 370.519 38.84C370.679 38.92 370.812 39 370.919 39.08C371.025 39.1467 371.085 39.2 371.099 39.24C371.032 39.5067 370.872 39.8733 370.619 40.34C370.379 40.7933 370.119 41.2733 369.839 41.78C369.559 42.2867 369.299 42.78 369.059 43.26C368.819 43.7267 368.679 44.1 368.639 44.38C369.292 43.4867 369.905 42.68 370.479 41.96C371.052 41.2267 371.592 40.6 372.099 40.08C372.605 39.56 373.072 39.16 373.499 38.88C373.939 38.6 374.352 38.46 374.739 38.46C375.005 38.46 375.252 38.5333 375.479 38.68C375.719 38.8133 375.885 39.0133 375.979 39.28C375.859 39.68 375.659 40.16 375.379 40.72C375.112 41.28 374.839 41.8733 374.559 42.5C374.279 43.1133 374.025 43.72 373.799 44.32C373.585 44.92 373.479 45.46 373.479 45.94C373.479 46.22 373.519 46.4067 373.599 46.5C373.679 46.58 373.792 46.62 373.939 46.62C374.099 46.62 374.245 46.5933 374.379 46.54C374.525 46.4733 374.632 46.44 374.699 46.44C374.779 46.4933 374.825 46.56 374.839 46.64C374.852 46.72 374.859 46.7933 374.859 46.86C374.592 47.0733 374.319 47.2467 374.039 47.38C373.759 47.5267 373.445 47.6 373.099 47.6C372.779 47.6 372.512 47.5467 372.299 47.44C372.099 47.3333 371.932 47.1867 371.799 47C371.665 46.8133 371.572 46.6 371.519 46.36C371.465 46.12 371.439 45.86 371.439 45.58C371.439 45.1267 371.499 44.68 371.619 44.24C371.739 43.7867 371.879 43.36 372.039 42.96C372.212 42.5467 372.392 42.1667 372.579 41.82C372.765 41.46 372.925 41.14 373.059 40.86Z" fill="white"/>
<mask id="path-7-inside-3_6_10" fill="white">
<path d="M619 20H664C666.761 20 669 22.2386 669 25V55C669 57.7614 666.761 60 664 60H619V20Z"/>
</mask>
<path d="M619 19H664C667.314 19 670 21.6863 670 25H668C668 22.7909 666.209 21 664 21H619V19ZM670 55C670 58.3137 667.314 61 664 61H619V59H664C666.209 59 668 57.2091 668 55H670ZM619 60V20V60ZM664 19C667.314 19 670 21.6863 670 25V55C670 58.3137 667.314 61 664 61V59C666.209 59 668 57.2091 668 55V25C668 22.7909 666.209 21 664 21V19Z" fill="white" mask="url(#path-7-inside-3_6_10)"/>
<mask id="path-9-inside-4_6_10" fill="white">
<path d="M59 20H219V60H59V20Z"/>
</mask>
<path d="M59 20V19H58V20H59ZM59 60H58V61H59V60ZM59 21H219V19H59V21ZM219 59H59V61H219V59ZM60 60V20H58V60H60Z" fill="white" mask="url(#path-9-inside-4_6_10)"/>
<path d="M2 40.3L8 38.3081V42.2919L2 40.3Z" fill="white"/>
<path d="M59.5 59.2258L1.58696 40L59.5 20.7742V59.2258Z" stroke="white"/>
</g>
</g>
<defs>
<clipPath id="clip0_6_10">
<rect width="669" height="65" fill="white"/>
</clipPath>
<clipPath id="clip1_6_10">
<rect width="669" height="50" fill="white" transform="translate(0 15)"/>
</clipPath>
</defs>
</svg>
