<svg width="220" height="42" viewBox="0 0 220 42" fill="none" xmlns="http://www.w3.org/2000/svg">
<g clip-path="url(#clip0_6_11)">
<path d="M20 0.5H219.5V41.5H20C9.23044 41.5 0.5 32.7696 0.5 22V20C0.5 9.23045 9.23045 0.5 20 0.5Z" stroke="white"/>
<path d="M145.222 10.2743L144.958 17.8127L144.946 18.1757L145.287 18.3L152.375 20.8798L145.124 22.9589L144.775 23.0591L144.762 23.4221L144.499 30.9605L140.281 24.7071L140.078 24.4059L139.729 24.5061L132.478 26.5852L137.122 20.6413L137.346 20.355L137.143 20.0538L132.925 13.8004L140.013 16.3803L140.354 16.5045L140.578 16.2183L145.222 10.2743Z" stroke="white"/>
<path d="M26.6464 20.6464C26.4512 20.8417 26.4512 21.1583 26.6464 21.3536L29.8284 24.5355C30.0237 24.7308 30.3403 24.7308 30.5355 24.5355C30.7308 24.3403 30.7308 24.0237 30.5355 23.8284L27.7071 21L30.5355 18.1716C30.7308 17.9763 30.7308 17.6597 30.5355 17.4645C30.3403 17.2692 30.0237 17.2692 29.8284 17.4645L26.6464 20.6464ZM112 20.5L27 20.5L27 21.5L112 21.5L112 20.5Z" fill="white"/>
</g>
<defs>
<clipPath id="clip0_6_11">
<rect width="220" height="42" fill="white"/>
</clipPath>
</defs>
</svg>
